<svg xmlns="http://www.w3.org/2000/svg" width="24" height="24" viewBox="0 0 24 24">
  <g fill="none" fill-rule="evenodd" stroke="#000" stroke-linecap="round" stroke-linejoin="round">
    <polyline points="4.5 2.5 .5 2.5 .5 23.5 23.5 23.5 23.5 2.5 19.5 2.5"/>
    <polygon points="7.5 4.5 4.5 4.5 4.5 .5 7.5 .5"/>
    <polygon points="19.5 4.5 16.5 4.5 16.5 .5 19.5 .5"/>
    <path d="M7.5 2.5L16.5 2.5M.5 7.5L23.5 7.5M6.5 9.5L6.5 21.5M11.5 9.5L11.5 21.5M16.5 9.5L16.5 21.5M2.5 11.5L21.5 11.5M2.5 15.5L21.5 15.5M2.5 19.5L21.5 19.5"/>
  </g>
</svg>
